<?xml version="1.0" standalone="no"?>
<!DOCTYPE svg PUBLIC "-//W3C//DTD SVG 20010904//EN"
 "http://www.w3.org/TR/2001/REC-SVG-20010904/DTD/svg10.dtd">
<svg version="1.0" xmlns="http://www.w3.org/2000/svg"
 width="125.000000pt" height="42.000000pt" viewBox="0 0 125.000000 42.000000"
 preserveAspectRatio="xMidYMid meet">

<g transform="translate(0.000000,42.000000) scale(0.100000,-0.100000)"
fill="#000000" stroke="none">
<path d="M0 210 l0 -210 625 0 625 0 0 210 0 210 -625 0 -625 0 0 -210z m234
49 c46 -36 23 -109 -35 -109 -25 0 -29 4 -29 29 0 58 23 79 51 45 11 -14 10
-19 -10 -35 -28 -23 -22 -36 8 -19 38 20 23 90 -20 90 -24 0 -42 -26 -50 -73
l-6 -42 -2 45 c-1 49 4 61 34 78 27 15 28 15 59 -9z m153 -44 c2 -29 -10 -45
-34 -45 -8 0 -13 15 -13 41 0 36 2 40 22 37 17 -2 23 -10 25 -33z m557 -15 c1
-16 0 -30 -2 -30 -7 0 -21 53 -16 62 9 15 17 1 18 -32z m-499 1 c-3 -3 -11 1
-16 9 -8 12 -10 9 -6 -12 3 -19 0 -25 -10 -21 -16 6 -17 40 0 46 14 5 40 -13
32 -22z m35 14 c-10 -12 -10 -18 0 -30 9 -11 9 -15 1 -15 -15 0 -25 26 -17 45
3 8 11 15 17 15 8 0 8 -4 -1 -15z m69 2 c8 -10 7 -19 -4 -33 -13 -18 -15 -18
-31 -2 -14 14 -15 20 -4 32 15 19 24 20 39 3z m88 -18 c1 -15 0 -17 -3 -6 -3
9 -10 17 -15 17 -5 0 -9 -8 -10 -17 0 -13 -3 -11 -11 7 l-11 25 -7 -25 c-7
-22 -8 -22 -9 -4 -1 27 6 33 37 30 20 -2 27 -9 29 -27z m63 10 c0 -13 -18 -11
-23 4 -3 6 -6 2 -6 -10 -1 -12 4 -24 9 -26 6 -3 5 -4 -2 -3 -21 4 -35 36 -19
45 16 10 41 4 41 -10z m68 -8 c2 -15 0 -21 -7 -17 -6 4 -11 2 -11 -4 0 -6 -4
-8 -10 -5 -15 9 -12 25 5 25 17 0 20 16 5 23 -6 3 -5 4 2 3 7 -1 15 -13 16
-25z m90 3 c2 -14 -6 -24 -23 -32 -24 -11 -25 -10 -25 17 0 43 42 55 48 15z
m50 -3 c2 -15 0 -21 -7 -17 -6 4 -11 2 -11 -4 0 -6 -4 -8 -10 -5 -16 10 -12
25 6 25 14 0 15 2 3 17 -12 14 -12 16 1 11 8 -2 17 -15 18 -27z m69 4 c-9 -19
-13 -21 -15 -9 -3 13 12 33 25 34 0 0 -4 -11 -10 -25z m63 9 c11 -12 11 -18
-2 -31 -19 -18 -38 -10 -38 16 0 33 20 40 40 15z m59 -17 c-1 -20 -2 -20 -9 3
l-7 25 -11 -25 c-10 -23 -11 -24 -11 -3 -1 21 16 35 32 26 4 -2 7 -14 6 -26z"/>
<path d="M350 230 c0 -5 5 -10 10 -10 6 0 10 5 10 10 0 6 -4 10 -10 10 -5 0
-10 -4 -10 -10z"/>
<path d="M356 201 c-4 -5 -2 -12 3 -15 5 -4 12 -2 15 3 4 5 2 12 -3 15 -5 4
-12 2 -15 -3z"/>
<path d="M520 200 c0 -11 5 -20 10 -20 6 0 10 9 10 20 0 11 -4 20 -10 20 -5 0
-10 -9 -10 -20z"/>
<path d="M825 210 c-4 -6 -3 -16 3 -22 6 -6 12 -6 17 2 4 6 3 16 -3 22 -6 6
-12 6 -17 -2z"/>
<path d="M1014 209 c-3 -6 -1 -16 5 -22 8 -8 11 -5 11 11 0 24 -5 28 -16 11z"/>
</g>
</svg>
